<?xml version="1.0" encoding="utf-8"?>
<!-- Generator: Adobe Illustrator 25.2.0, SVG Export Plug-In . SVG Version: 6.00 Build 0)  -->
<svg version="1.1" id="Layer_1" xmlns="http://www.w3.org/2000/svg" xmlns:xlink="http://www.w3.org/1999/xlink" x="0px" y="0px"
	 viewBox="0 0 144 144" style="enable-background:new 0 0 144 144;" xml:space="preserve">
<style type="text/css">
	.st0{fill:#FFFFFF;}
	.st1{fill:none;stroke:#FF5760;stroke-width:3;stroke-linecap:round;stroke-miterlimit:10;stroke-dasharray:2,6;}
	.st2{fill:#FF5760;}
	.st3{fill:none;stroke:#FF5760;stroke-width:4;stroke-linecap:round;stroke-miterlimit:10;}
	.st4{fill:none;stroke:#FF5760;stroke-width:5;stroke-miterlimit:10;}
	.st5{fill:url(#SVGID_1_);}
	.st6{fill:none;stroke:#C9C0FF;stroke-width:2;stroke-linecap:round;stroke-miterlimit:10;}
	.st7{fill:none;stroke:#7F4B96;stroke-width:2;stroke-linecap:round;stroke-miterlimit:10;}
	.st8{fill:none;stroke:#302E49;stroke-width:2;stroke-linecap:round;stroke-miterlimit:10;}
	.st9{fill:url(#SVGID_2_);}
	.st10{fill:#302E49;}
</style>
<g>
	<rect y="0" class="st0" width="144" height="144"/>
</g>
<g>
	<path class="st1" d="M83.9,21.5L83.9,21.5c22,0,39.8,17.8,39.8,39.8v1.1"/>
	<polyline class="st2" points="131.1,60 123,68.1 114.9,60 	"/>
	<path class="st1" d="M63.7,123.6L63.7,123.6c-22,0-39.8-17.8-39.8-39.8v-1.1"/>
	<polyline class="st2" points="16.5,85.2 24.6,77.1 32.7,85.2 	"/>
</g>
<g>
	<circle class="st3" cx="19.6" cy="22.5" r="5.8"/>
	<circle class="st3" cx="34.7" cy="54.6" r="5.8"/>
	<circle class="st3" cx="54.5" cy="29.5" r="5.8"/>
	<line class="st4" x1="22" y1="27.7" x2="32.2" y2="49.4"/>
	<path class="st4" d="M23.5,26.7l2.1,2.4c6.5,5.8,15.9,6.9,23.5,2.9"/>
</g>
<g>
	<g>
		<polygon class="st2" points="124.4,95.1 124.4,85 93,85 93,133.8 134.5,133.8 134.5,95.1 		"/>
	</g>
	
		<linearGradient id="SVGID_1_" gradientUnits="userSpaceOnUse" x1="124.4" y1="540.05" x2="134.47" y2="540.05" gradientTransform="matrix(1 0 0 1 0 -450)">
		<stop  offset="0" style="stop-color:#FBE6F9"/>
		<stop  offset="1" style="stop-color:#C9C0FF"/>
	</linearGradient>
	<polygon class="st5" points="134.5,95.1 134.5,94 125.5,85 124.4,85 124.4,95.1 	"/>
	<g>
		<g>
			<g>
				<line class="st6" x1="112.6" y1="125.1" x2="99.8" y2="125.1"/>
				<line class="st7" x1="111.7" y1="119.9" x2="99.8" y2="119.9"/>
				<line class="st6" x1="123.1" y1="119.9" x2="117.9" y2="119.9"/>
				<line class="st8" x1="109.2" y1="109.4" x2="99.8" y2="109.4"/>
				<line class="st7" x1="124.3" y1="109.4" x2="113.8" y2="109.4"/>
				<line class="st7" x1="103.2" y1="104.2" x2="99.8" y2="104.2"/>
				<line class="st8" x1="119.9" y1="104.2" x2="107.1" y2="104.2"/>
				<line class="st6" x1="128.3" y1="104.2" x2="123.8" y2="104.2"/>
				<line class="st6" x1="106.1" y1="114.6" x2="99.8" y2="114.6"/>
				<line class="st7" x1="121.7" y1="114.6" x2="110.5" y2="114.6"/>
				<line class="st7" x1="111.3" y1="99.1" x2="114.3" y2="99.1"/>
				<line class="st6" x1="99.8" y1="99.1" x2="107.9" y2="99.1"/>
			</g>
		</g>
	</g>
</g>
<g>
	
		<linearGradient id="SVGID_2_" gradientUnits="userSpaceOnUse" x1="42.8" y1="521.9999" x2="101.28" y2="521.9999" gradientTransform="matrix(1 0 0 1 0 -450)">
		<stop  offset="0" style="stop-color:#FBE6F9"/>
		<stop  offset="1" style="stop-color:#FF5760"/>
	</linearGradient>
	<circle class="st9" cx="72" cy="72" r="29.2"/>
	<g>
		<g>
			<path class="st10" d="M73.2,73.2c-1.7,1.7-4.9,1.3-7.1-0.9L64,70.2l-1.4-1.4c-2.2-2.2-2.6-5.4-0.9-7.1c1.7-1.7,4.9-1.3,7.1,0.9
				l0.9,0.9l0.5,0.5c1.7-0.5,3.6-0.6,5.4-0.1l-1.2-1.2L70.7,59c-3.3-3.3-8.7-3.5-11.9-0.2c-3.2,3.2-3.2,8.6,0.2,11.9l4.9,4.9
				l0.3,0.3c3.3,3.3,8.7,3.4,11.9,0.2l1-1l-3-3L73.2,73.2z"/>
		</g>
		<g>
			<path class="st10" d="M70.8,70.8c1.7-1.7,4.9-1.3,7.1,0.9l2.1,2.1l1.4,1.4c2.2,2.2,2.6,5.4,0.9,7.1s-4.9,1.3-7.1-0.9l-0.9-0.9
				L73.8,80c-1.7,0.6-3.6,0.6-5.4,0.1l1.2,1.2l3.7,3.7c3.3,3.3,8.7,3.4,11.9,0.2c3.2-3.2,3.2-8.6-0.2-11.9l-4.9-4.9l-0.3-0.3
				c-3.3-3.3-8.7-3.4-11.9-0.2l-1,1l3,3L70.8,70.8z"/>
		</g>
	</g>
</g>
</svg>
