<?xml version="1.0" encoding="utf-8"?>
<!-- Generator: Adobe Illustrator 26.0.3, SVG Export Plug-In . SVG Version: 6.00 Build 0)  -->
<svg version="1.1" id="Layer_1" xmlns="http://www.w3.org/2000/svg" xmlns:xlink="http://www.w3.org/1999/xlink" x="0px" y="0px"
	 viewBox="0 0 144 144" style="enable-background:new 0 0 144 144;" xml:space="preserve">
<style type="text/css">
	.st0{fill:url(#SVGID_1_);}
	.st1{fill:#7F4B96;}
	.st2{fill:#FBFBFB;}
	.st3{fill:none;stroke:#FBFBFB;stroke-width:3;stroke-linecap:round;stroke-miterlimit:10;}
	.st4{fill:#FF5760;}
	.st5{fill:none;stroke:#FAFAFA;stroke-width:3;stroke-linecap:round;stroke-miterlimit:10;}
</style>
<g>
	
		<linearGradient id="SVGID_1_" gradientUnits="userSpaceOnUse" x1="0" y1="73.8089" x2="144" y2="73.8089" gradientTransform="matrix(1 0 0 -1 0 145.8089)">
		<stop  offset="0" style="stop-color:#FBE6F9"/>
		<stop  offset="1" style="stop-color:#C9C0FF"/>
	</linearGradient>
	<rect class="st0" width="144" height="144"/>
</g>
<path class="st1" d="M18.3,14h67.8c3.3,0,6,2.7,6,6v67.8c0,3.3-2.7,6-6,6H18.3c-3.3,0-6-2.7-6-6V20C12.3,16.6,15,14,18.3,14z"/>
<g>
	<g>
		<g>
			<path class="st2" d="M74.9,30.5c1.9,0,3.4,1.5,3.4,3.4v26.2c0,1.9-1.5,3.4-3.4,3.4H29.4c-1.9,0-3.4-1.5-3.4-3.4V33.9
				c0-1.9,1.5-3.4,3.4-3.4H74.9 M74.9,27.5H29.4c-3.5,0-6.4,2.9-6.4,6.4v26.2c0,3.5,2.9,6.4,6.4,6.4h45.5c3.5,0,6.4-2.9,6.4-6.4
				V33.9C81.3,30.4,78.5,27.5,74.9,27.5L74.9,27.5z"/>
		</g>
	</g>
	<line class="st3" x1="28.8" y1="72" x2="75.5" y2="72"/>
	<line class="st3" x1="31.6" y1="78.4" x2="72.8" y2="78.4"/>
	<polyline class="st3" points="42.1,47.8 48.6,54.2 62.3,41.3 	"/>
</g>
<path class="st4" d="M127.2,132.3H86.7c-3.3,0-6-2.7-6-6V88.1c0-3.3,2.7-6,6-6h40.4c3.3,0,6,2.7,6,6v38.2
	C133.2,129.6,130.5,132.3,127.2,132.3z"/>
<path class="st5" d="M106.9,120.9c-14.5-6.5-12.2-12.7-12.2-23c4.9,1.1,9.6-2.2,12.2-4.4c2.6,2.2,7.3,5.5,12.2,4.4
	C119.2,108.2,121.5,114.4,106.9,120.9z"/>
</svg>
